M48
;DRILL file {KiCad 4.0.6} date 09/11/17 10:52:05
;FORMAT={-:-/ absolute / metric / decimal}
FMAT,2
METRIC,TZ
T1C0.400
T2C0.762
T3C0.900
T4C1.000
T5C0.900
T6C3.200
%
G90
G05
M71
T1
X71.12Y-50.8
X73.152Y-59.436
X74.295Y-52.875
X76.2Y-52.875
X76.2Y-66.802
X76.962Y-64.389
X77.089Y-51.435
X77.978Y-50.165
X78.105Y-61.425
X79.756Y-68.707
X80.645Y-60.452
X84.201Y-59.944
X86.49Y-68.58
X87.63Y-59.69
X88.265Y-54.737
X88.265Y-68.75
X90.17Y-52.39
X90.17Y-58.735
X91.186Y-68.453
X92.075Y-58.885
X93.195Y-55.714
X93.81Y-70.485
X93.98Y-60.96
X93.98Y-63.33
X97.155Y-59.37
X98.89Y-63.5
X98.89Y-67.31
X100.16Y-50.8
X102.743Y-49.784
X102.87Y-62.06
X103.632Y-84.582
X103.759Y-69.215
X104.521Y-57.785
X105.632Y-76.454
X105.664Y-73.914
X105.918Y-69.977
X106.091Y-79.616
X107.95Y-59.595
X107.95Y-63.595
X107.95Y-71.501
X108.245Y-69.977
X109.898Y-85.598
X111.011Y-62.484
X111.411Y-96.139
X113.03Y-61.087
X113.538Y-56.261
X113.538Y-67.437
X114.935Y-52.197
X114.935Y-58.735
X115.76Y-90.932
X116.586Y-79.588
X116.713Y-58.674
X116.84Y-61.13
X117.729Y-55.626
X118.745Y-63.33
X120.904Y-87.376
X120.904Y-88.392
X121.92Y-59.37
X122.428Y-87.376
X122.428Y-88.392
X122.85Y-63.5
X124.925Y-50.8
X125.984Y-73.867
X126.078Y-85.344
X127.492Y-49.657
X127.635Y-61.425
X128.016Y-72.898
X128.333Y-66.802
X128.905Y-96.985
X129.667Y-57.912
X130.81Y-93.218
X131.44Y-87.895
X131.44Y-96.145
X131.44Y-96.145
X132.715Y-59.595
X132.715Y-63.595
X133.604Y-82.804
X133.985Y-80.645
X134.315Y-74.778
X135.128Y-88.519
X135.368Y-86.462
X135.382Y-83.312
X135.917Y-88.651
X136.144Y-93.472
X136.572Y-77.47
X137.795Y-61.13
X138.43Y-56.642
X138.43Y-67.183
X139.7Y-58.735
X139.954Y-84.201
X140.34Y-96.145
X140.589Y-55.88
X141.605Y-58.885
X141.605Y-61.13
X142.494Y-82.423
X143.129Y-89.662
X143.256Y-86.741
X143.51Y-63.33
X143.51Y-74.1
X146.685Y-59.37
X147.574Y-71.925
X147.615Y-63.5
X149.225Y-65.151
X149.606Y-95.25
X149.647Y-50.8
X149.86Y-73.565
X150.876Y-87.742
X151.066Y-88.554
X151.257Y-86.233
X151.511Y-84.963
X151.587Y-62.41
X152.146Y-90.109
X152.367Y-62.143
X152.4Y-49.53
X152.4Y-82.931
X152.442Y-60.71
X152.527Y-63.754
X153.162Y-93.726
X153.23Y-64.321
X153.238Y-74.541
X153.543Y-57.15
X153.708Y-77.356
X153.797Y-63.717
X154.525Y-64.049
X154.548Y-78.878
X155.291Y-63.82
X155.448Y-75.057
X155.575Y-91.059
X156.251Y-63.625
X156.337Y-75.057
X156.933Y-77.016
X156.972Y-63.971
X157.162Y-94.869
X157.611Y-64.453
X157.734Y-73.914
X158.115Y-88.806
X158.369Y-87.757
X158.964Y-61.546
X159.639Y-49.695
X159.639Y-91.313
X159.766Y-71.893
X159.766Y-77.851
X159.79Y-80.367
X159.806Y-81.367
X160.02Y-82.232
X160.02Y-93.726
X160.068Y-63.078
X160.528Y-78.502
X161.1Y-87.78
X161.29Y-65.151
X161.333Y-84.836
X161.333Y-86.36
X163.195Y-57.467
X163.385Y-66.802
X163.576Y-53.213
X163.576Y-76.327
X163.83Y-93.726
X164.082Y-55.735
X164.465Y-61.13
X164.465Y-63.33
X165.354Y-55.88
X165.735Y-90.297
X165.76Y-89.205
X166.052Y-94.869
X166.37Y-58.885
X166.37Y-61.13
X167.556Y-89.154
X168.275Y-63.33
X168.402Y-73.66
X168.783Y-75.438
X169.756Y-89.154
X170.18Y-63.33
X171.132Y-73.152
X171.45Y-59.37
X171.798Y-69.147
X172.339Y-93.726
X172.351Y-68.568
X172.353Y-52.063
X172.916Y-68.003
X173.355Y-52.875
X173.482Y-67.31
X173.609Y-89.154
X174.602Y-83.505
X174.791Y-82.727
X174.815Y-94.869
X174.879Y-89.827
X175.213Y-84.021
X175.26Y-52.875
X175.267Y-82.085
X175.777Y-81.468
X175.895Y-72.644
X176.13Y-80.499
X176.276Y-45.847
X176.403Y-90.335
X176.613Y-88.519
X176.868Y-58.801
X176.997Y-68.961
X177.355Y-74.105
X177.99Y-76.962
X178.435Y-84.074
X178.745Y-88.633
X179.197Y-67.183
X179.234Y-84.112
X179.356Y-59.563
X179.451Y-92.202
X179.953Y-85.23
X180.523Y-84.669
X180.721Y-80.391
X180.784Y-83.693
X180.848Y-82.423
X181.038Y-78.486
X181.038Y-79.438
X181.483Y-93.599
X183.515Y-92.583
X184.213Y-90.551
X185.102Y-85.09
X185.166Y-73.193
X185.356Y-82.867
X185.444Y-79.075
X185.801Y-90.678
X186.055Y-65.151
X186.055Y-79.819
X187.198Y-91.186
X187.325Y-61.13
X187.325Y-63.33
X187.325Y-79.121
X187.452Y-51.587
X187.544Y-79.89
X187.579Y-54.737
X188.404Y-76.263
X188.544Y-75.184
X188.849Y-68.834
X189.166Y-76.708
X189.547Y-83.802
X189.611Y-52.197
X189.674Y-81.725
X190.119Y-55.626
X190.373Y-84.92
X191.008Y-69.426
X191.135Y-58.885
X191.135Y-61.13
X191.135Y-91.694
X191.233Y-79.839
X192.659Y-67.183
X192.659Y-69.383
X192.722Y-74.295
X193.04Y-63.33
X193.484Y-79.756
X194.691Y-62.23
X195.326Y-87.312
X195.326Y-88.582
X195.326Y-89.852
X195.58Y-67.531
X195.58Y-72.931
X195.897Y-62.23
X196.215Y-59.37
X196.561Y-61.04
X196.596Y-65.151
X197.02Y-50.8
X197.104Y-86.995
X197.104Y-87.757
X197.104Y-88.646
X197.104Y-89.535
X197.294Y-52.197
X197.294Y-58.674
X197.612Y-63.754
X199.009Y-86.995
X199.009Y-87.757
X199.009Y-88.646
X199.009Y-89.599
X199.072Y-74.168
X199.211Y-76.623
X199.263Y-69.175
X199.263Y-79.175
X199.326Y-66.675
X201.422Y-50.292
X201.867Y-77.47
X201.93Y-61.425
X202.565Y-66.294
X203.136Y-71.748
X203.454Y-67.142
X203.708Y-63.246
X204.47Y-58.547
X204.534Y-73.025
X205.4Y-67.358
X205.4Y-68.628
X205.4Y-69.908
X206.692Y-73.025
X207.01Y-63.69
X212.725Y-54.864
X212.725Y-61.13
X212.725Y-63.33
X214.63Y-52.39
X214.63Y-58.735
X215.9Y-48.578
X216.471Y-49.53
X216.471Y-49.53
X216.471Y-50.8
X216.535Y-52.24
X216.535Y-61.13
X216.98Y-48.578
X217.424Y-55.499
X218.44Y-63.33
X220.218Y-63.33
T2
X67.184Y-76.708
X67.184Y-80.708
X67.232Y-85.884
X67.232Y-89.884
X69.184Y-76.708
X69.184Y-80.708
X69.232Y-85.884
X69.232Y-89.884
X71.184Y-76.708
X71.184Y-80.708
X71.232Y-85.884
X71.232Y-89.884
X73.184Y-76.708
X73.184Y-80.708
X73.232Y-85.884
X73.232Y-89.884
X75.184Y-76.708
X75.184Y-80.708
X75.232Y-85.884
X75.232Y-89.884
X77.184Y-76.708
X77.184Y-80.708
X77.232Y-85.884
X77.232Y-89.884
X79.184Y-76.708
X79.184Y-80.708
X79.232Y-85.884
X79.232Y-89.884
X81.184Y-76.708
X81.184Y-80.708
X81.232Y-85.884
X81.232Y-89.884
X83.184Y-76.708
X83.184Y-80.708
X83.232Y-85.884
X83.232Y-89.884
X85.184Y-76.708
X85.184Y-80.708
X85.232Y-85.884
X85.232Y-89.884
X87.184Y-76.708
X87.184Y-80.708
X87.232Y-85.884
X87.232Y-89.884
X89.184Y-76.708
X89.184Y-80.708
X89.232Y-85.884
X89.232Y-89.884
X209.235Y-86.614
X209.235Y-90.614
X210.187Y-76.645
X210.187Y-80.645
X211.235Y-86.614
X211.235Y-90.614
X212.187Y-76.645
X212.187Y-80.645
X213.235Y-86.614
X213.235Y-90.614
X214.187Y-76.645
X214.187Y-80.645
X215.235Y-86.614
X215.235Y-90.614
X216.187Y-76.645
X216.187Y-80.645
X217.235Y-86.614
X217.235Y-90.614
X218.187Y-76.645
X218.187Y-80.645
X219.235Y-86.614
X219.235Y-90.614
X220.187Y-76.645
X220.187Y-80.645
X221.235Y-86.614
X221.235Y-90.614
X222.187Y-76.645
X222.187Y-80.645
X223.235Y-86.614
X223.235Y-90.614
X224.187Y-76.645
X224.187Y-80.645
X225.235Y-86.614
X225.235Y-90.614
X226.187Y-76.645
X226.187Y-80.645
X227.235Y-86.614
X227.235Y-90.614
X229.235Y-86.614
X229.235Y-90.614
T3
X227.584Y-40.927
X227.584Y-43.427
X227.584Y-45.927
X227.584Y-48.427
X227.584Y-50.927
X227.584Y-53.427
X227.584Y-55.927
T4
X71.12Y-45.72
X73.152Y-62.945
X92.71Y-46.275
X117.475Y-46.275
X142.177Y-46.212
X167.005Y-46.275
X191.77Y-46.275
T5
X133.69Y-93.145
X138.09Y-93.145
T6
X68.58Y-33.909
X68.58Y-94.869
X228.219Y-34.036
X228.219Y-94.742
T0
M30
