G04 #@! TF.FileFunction,Soldermask,Bot*
%FSLAX46Y46*%
G04 Gerber Fmt 4.6, Leading zero omitted, Abs format (unit mm)*
G04 Created by KiCad (PCBNEW 4.0.6) date 09/11/17 10:51:36*
%MOMM*%
%LPD*%
G01*
G04 APERTURE LIST*
%ADD10C,0.100000*%
%ADD11C,1.524000*%
%ADD12C,3.200000*%
%ADD13R,1.850000X1.850000*%
%ADD14C,1.850000*%
%ADD15C,0.900000*%
%ADD16R,1.600000X1.200000*%
G04 APERTURE END LIST*
D10*
D11*
X67184000Y-80708000D03*
X69184000Y-80708000D03*
X71184000Y-80708000D03*
X73184000Y-80708000D03*
X75184000Y-80708000D03*
X77184000Y-80708000D03*
X79184000Y-80708000D03*
X81184000Y-80708000D03*
X83184000Y-80708000D03*
X85184000Y-80708000D03*
X87184000Y-80708000D03*
X89184000Y-80708000D03*
X89184000Y-76708000D03*
X87184000Y-76708000D03*
X85184000Y-76708000D03*
X83184000Y-76708000D03*
X81184000Y-76708000D03*
X79184000Y-76708000D03*
X77184000Y-76708000D03*
X75184000Y-76708000D03*
X73184000Y-76708000D03*
X71184000Y-76708000D03*
X69184000Y-76708000D03*
X67184000Y-76708000D03*
D12*
X68580000Y-33909000D03*
X68580000Y-94869000D03*
X228219000Y-94742000D03*
D13*
X227584000Y-55927000D03*
D14*
X227584000Y-53427000D03*
X227584000Y-50927000D03*
X227584000Y-48427000D03*
X227584000Y-45927000D03*
X227584000Y-43427000D03*
X227584000Y-40927000D03*
D11*
X210187000Y-80645000D03*
X212187000Y-80645000D03*
X214187000Y-80645000D03*
X216187000Y-80645000D03*
X218187000Y-80645000D03*
X220187000Y-80645000D03*
X222187000Y-80645000D03*
X224187000Y-80645000D03*
X226187000Y-80645000D03*
X226187000Y-76645000D03*
X224187000Y-76645000D03*
X222187000Y-76645000D03*
X220187000Y-76645000D03*
X218187000Y-76645000D03*
X216187000Y-76645000D03*
X214187000Y-76645000D03*
X212187000Y-76645000D03*
X210187000Y-76645000D03*
X67232000Y-89884000D03*
X69232000Y-89884000D03*
X71232000Y-89884000D03*
X73232000Y-89884000D03*
X75232000Y-89884000D03*
X77232000Y-89884000D03*
X79232000Y-89884000D03*
X81232000Y-89884000D03*
X83232000Y-89884000D03*
X85232000Y-89884000D03*
X87232000Y-89884000D03*
X89232000Y-89884000D03*
X89232000Y-85884000D03*
X87232000Y-85884000D03*
X85232000Y-85884000D03*
X83232000Y-85884000D03*
X81232000Y-85884000D03*
X79232000Y-85884000D03*
X77232000Y-85884000D03*
X75232000Y-85884000D03*
X73232000Y-85884000D03*
X71232000Y-85884000D03*
X69232000Y-85884000D03*
X67232000Y-85884000D03*
X209235000Y-90614000D03*
X211235000Y-90614000D03*
X213235000Y-90614000D03*
X215235000Y-90614000D03*
X217235000Y-90614000D03*
X219235000Y-90614000D03*
X221235000Y-90614000D03*
X223235000Y-90614000D03*
X225235000Y-90614000D03*
X227235000Y-90614000D03*
X229235000Y-90614000D03*
X209235000Y-86614000D03*
X211235000Y-86614000D03*
X213235000Y-86614000D03*
X215235000Y-86614000D03*
X217235000Y-86614000D03*
X219235000Y-86614000D03*
X221235000Y-86614000D03*
X223235000Y-86614000D03*
X225235000Y-86614000D03*
X227235000Y-86614000D03*
X229235000Y-86614000D03*
D15*
X133690000Y-93145000D03*
X138090000Y-93145000D03*
D16*
X199263000Y-51696600D03*
X199263000Y-54196600D03*
X199263000Y-56696600D03*
X199263000Y-59196600D03*
X199263000Y-61696600D03*
X199263000Y-64196600D03*
X199263000Y-66696600D03*
X199263000Y-69196600D03*
X199263000Y-71696600D03*
X199263000Y-74196600D03*
X199263000Y-76696600D03*
X199263000Y-79196600D03*
X199263000Y-81696600D03*
X199263000Y-84196600D03*
D12*
X228219000Y-34036000D03*
M02*
