G04 #@! TF.FileFunction,Soldermask,Top*
%FSLAX46Y46*%
G04 Gerber Fmt 4.6, Leading zero omitted, Abs format (unit mm)*
G04 Created by KiCad (PCBNEW 4.0.6) date 09/11/17 10:51:36*
%MOMM*%
%LPD*%
G01*
G04 APERTURE LIST*
%ADD10C,0.100000*%
%ADD11C,0.150000*%
%ADD12R,25.000000X8.000000*%
%ADD13C,1.524000*%
%ADD14R,0.280000X1.500000*%
%ADD15R,1.500000X0.280000*%
%ADD16R,0.599440X1.699260*%
%ADD17R,0.998220X2.697480*%
%ADD18C,3.200000*%
%ADD19R,1.850000X1.850000*%
%ADD20C,1.850000*%
%ADD21R,1.550000X0.600000*%
%ADD22R,2.000000X2.000000*%
%ADD23R,1.200000X0.700000*%
%ADD24R,4.290000X4.500000*%
%ADD25R,1.600000X1.550000*%
%ADD26R,1.200000X1.550000*%
%ADD27R,3.800000X2.000000*%
%ADD28R,1.500000X2.000000*%
%ADD29R,0.900000X1.200000*%
%ADD30R,1.200000X0.900000*%
%ADD31R,0.750000X1.200000*%
%ADD32R,1.300000X1.500000*%
%ADD33R,3.325000X2.500000*%
%ADD34R,0.500000X2.300000*%
%ADD35R,2.000000X2.500000*%
%ADD36C,0.900000*%
%ADD37R,1.501140X5.300980*%
%ADD38R,1.100000X1.100000*%
%ADD39R,1.200000X0.750000*%
%ADD40R,0.700000X1.200000*%
%ADD41R,4.500000X4.290000*%
%ADD42R,1.550000X1.600000*%
%ADD43R,1.550000X1.200000*%
%ADD44R,0.650000X2.000000*%
%ADD45R,1.910000X0.610000*%
%ADD46R,1.205000X1.550000*%
%ADD47R,3.400000X4.000000*%
%ADD48R,1.750000X1.800000*%
%ADD49R,2.500000X2.000000*%
%ADD50R,1.500000X1.300000*%
%ADD51R,5.300980X1.501140*%
%ADD52R,0.800000X0.900000*%
%ADD53R,1.700000X2.000000*%
%ADD54R,1.560000X0.650000*%
%ADD55R,1.600000X2.000000*%
%ADD56R,2.000000X1.600000*%
%ADD57R,2.700000X3.750000*%
%ADD58R,3.500000X4.000000*%
%ADD59R,1.500000X0.400000*%
%ADD60C,1.500000*%
G04 APERTURE END LIST*
D10*
D11*
X108745000Y-36025000D02*
X103345000Y-36025000D01*
X103345000Y-46525000D02*
X108745000Y-46525000D01*
X108795000Y-46525000D02*
X108795000Y-36025000D01*
X103295000Y-46525000D02*
X103295000Y-36025000D01*
X84295000Y-46525000D02*
X89695000Y-46525000D01*
X89695000Y-36025000D02*
X84295000Y-36025000D01*
X84245000Y-36025000D02*
X84245000Y-46525000D01*
X89745000Y-36025000D02*
X89745000Y-46525000D01*
X83980000Y-36025000D02*
X78580000Y-36025000D01*
X78580000Y-46525000D02*
X83980000Y-46525000D01*
X84030000Y-46525000D02*
X84030000Y-36025000D01*
X78530000Y-46525000D02*
X78530000Y-36025000D01*
X133510000Y-36025000D02*
X128110000Y-36025000D01*
X128110000Y-46525000D02*
X133510000Y-46525000D01*
X133560000Y-46525000D02*
X133560000Y-36025000D01*
X128060000Y-46525000D02*
X128060000Y-36025000D01*
X158275000Y-36025000D02*
X152875000Y-36025000D01*
X152875000Y-46525000D02*
X158275000Y-46525000D01*
X158325000Y-46525000D02*
X158325000Y-36025000D01*
X152825000Y-46525000D02*
X152825000Y-36025000D01*
X183040000Y-36025000D02*
X177640000Y-36025000D01*
X177640000Y-46525000D02*
X183040000Y-46525000D01*
X183090000Y-46525000D02*
X183090000Y-36025000D01*
X177590000Y-46525000D02*
X177590000Y-36025000D01*
X207805000Y-36025000D02*
X202405000Y-36025000D01*
X202405000Y-46525000D02*
X207805000Y-46525000D01*
X207855000Y-46525000D02*
X207855000Y-36025000D01*
X202355000Y-46525000D02*
X202355000Y-36025000D01*
X109060000Y-46525000D02*
X114460000Y-46525000D01*
X114460000Y-36025000D02*
X109060000Y-36025000D01*
X109010000Y-36025000D02*
X109010000Y-46525000D01*
X114510000Y-36025000D02*
X114510000Y-46525000D01*
X133825000Y-46525000D02*
X139225000Y-46525000D01*
X139225000Y-36025000D02*
X133825000Y-36025000D01*
X133775000Y-36025000D02*
X133775000Y-46525000D01*
X139275000Y-36025000D02*
X139275000Y-46525000D01*
X158590000Y-46525000D02*
X163990000Y-46525000D01*
X163990000Y-36025000D02*
X158590000Y-36025000D01*
X158540000Y-36025000D02*
X158540000Y-46525000D01*
X164040000Y-36025000D02*
X164040000Y-46525000D01*
X183355000Y-46525000D02*
X188755000Y-46525000D01*
X188755000Y-36025000D02*
X183355000Y-36025000D01*
X183305000Y-36025000D02*
X183305000Y-46525000D01*
X188805000Y-36025000D02*
X188805000Y-46525000D01*
X208120000Y-46525000D02*
X213520000Y-46525000D01*
X213520000Y-36025000D02*
X208120000Y-36025000D01*
X208070000Y-36025000D02*
X208070000Y-46525000D01*
X213570000Y-36025000D02*
X213570000Y-46525000D01*
X95410000Y-36025000D02*
X90010000Y-36025000D01*
X90010000Y-46525000D02*
X95410000Y-46525000D01*
X95460000Y-46525000D02*
X95460000Y-36025000D01*
X89960000Y-46525000D02*
X89960000Y-36025000D01*
X120175000Y-36025000D02*
X114775000Y-36025000D01*
X114775000Y-46525000D02*
X120175000Y-46525000D01*
X120225000Y-46525000D02*
X120225000Y-36025000D01*
X114725000Y-46525000D02*
X114725000Y-36025000D01*
X144940000Y-36025000D02*
X139540000Y-36025000D01*
X139540000Y-46525000D02*
X144940000Y-46525000D01*
X144990000Y-46525000D02*
X144990000Y-36025000D01*
X139490000Y-46525000D02*
X139490000Y-36025000D01*
X169705000Y-36025000D02*
X164305000Y-36025000D01*
X164305000Y-46525000D02*
X169705000Y-46525000D01*
X169755000Y-46525000D02*
X169755000Y-36025000D01*
X164255000Y-46525000D02*
X164255000Y-36025000D01*
X194470000Y-36025000D02*
X189070000Y-36025000D01*
X189070000Y-46525000D02*
X194470000Y-46525000D01*
X194520000Y-46525000D02*
X194520000Y-36025000D01*
X189020000Y-46525000D02*
X189020000Y-36025000D01*
X219235000Y-36025000D02*
X213835000Y-36025000D01*
X213835000Y-46525000D02*
X219235000Y-46525000D01*
X219285000Y-46525000D02*
X219285000Y-36025000D01*
X213785000Y-46525000D02*
X213785000Y-36025000D01*
D12*
X78184000Y-78708000D03*
D13*
X67184000Y-80708000D03*
X69184000Y-80708000D03*
X71184000Y-80708000D03*
X73184000Y-80708000D03*
X75184000Y-80708000D03*
X77184000Y-80708000D03*
X79184000Y-80708000D03*
X81184000Y-80708000D03*
X83184000Y-80708000D03*
X85184000Y-80708000D03*
X87184000Y-80708000D03*
X89184000Y-80708000D03*
X89184000Y-76708000D03*
X87184000Y-76708000D03*
X85184000Y-76708000D03*
X83184000Y-76708000D03*
X81184000Y-76708000D03*
X79184000Y-76708000D03*
X77184000Y-76708000D03*
X75184000Y-76708000D03*
X73184000Y-76708000D03*
X71184000Y-76708000D03*
X69184000Y-76708000D03*
X67184000Y-76708000D03*
D14*
X180879000Y-71467000D03*
X180379000Y-71467000D03*
X179879000Y-71467000D03*
X179379000Y-71467000D03*
X178879000Y-71467000D03*
X178379000Y-71467000D03*
X177879000Y-71467000D03*
X177379000Y-71467000D03*
X176879000Y-71467000D03*
X176379000Y-71467000D03*
X175879000Y-71467000D03*
X175379000Y-71467000D03*
X174879000Y-71467000D03*
X174379000Y-71467000D03*
X173879000Y-71467000D03*
X173379000Y-71467000D03*
X172879000Y-71467000D03*
X172379000Y-71467000D03*
X171879000Y-71467000D03*
X171379000Y-71467000D03*
X170879000Y-71467000D03*
X170379000Y-71467000D03*
X169879000Y-71467000D03*
X169379000Y-71467000D03*
X168879000Y-71467000D03*
D15*
X166979000Y-73367000D03*
X166979000Y-73867000D03*
X166979000Y-74367000D03*
X166979000Y-74867000D03*
X166979000Y-75367000D03*
X166979000Y-75867000D03*
X166979000Y-76367000D03*
X166979000Y-76867000D03*
X166979000Y-77367000D03*
X166979000Y-77867000D03*
X166979000Y-78367000D03*
X166979000Y-78867000D03*
X166979000Y-79367000D03*
X166979000Y-79867000D03*
X166979000Y-80367000D03*
X166979000Y-80867000D03*
X166979000Y-81367000D03*
X166979000Y-81867000D03*
X166979000Y-82367000D03*
X166979000Y-82867000D03*
X166979000Y-83367000D03*
X166979000Y-83867000D03*
X166979000Y-84367000D03*
X166979000Y-84867000D03*
X166979000Y-85367000D03*
D14*
X168879000Y-87267000D03*
X169379000Y-87267000D03*
X169879000Y-87267000D03*
X170379000Y-87267000D03*
X170879000Y-87267000D03*
X171379000Y-87267000D03*
X171879000Y-87267000D03*
X172379000Y-87267000D03*
X172879000Y-87267000D03*
X173379000Y-87267000D03*
X173879000Y-87267000D03*
X174379000Y-87267000D03*
X174879000Y-87267000D03*
X175379000Y-87267000D03*
X175879000Y-87267000D03*
X176379000Y-87267000D03*
X176879000Y-87267000D03*
X177379000Y-87267000D03*
X177879000Y-87267000D03*
X178379000Y-87267000D03*
X178879000Y-87267000D03*
X179379000Y-87267000D03*
X179879000Y-87267000D03*
X180379000Y-87267000D03*
X180879000Y-87267000D03*
D15*
X182779000Y-85367000D03*
X182779000Y-84867000D03*
X182779000Y-84367000D03*
X182779000Y-83867000D03*
X182779000Y-83367000D03*
X182779000Y-82867000D03*
X182779000Y-82367000D03*
X182779000Y-81867000D03*
X182779000Y-81367000D03*
X182779000Y-80867000D03*
X182779000Y-80367000D03*
X182779000Y-79867000D03*
X182779000Y-79367000D03*
X182779000Y-78867000D03*
X182779000Y-78367000D03*
X182779000Y-77867000D03*
X182779000Y-77367000D03*
X182779000Y-76867000D03*
X182779000Y-76367000D03*
X182779000Y-75867000D03*
X182779000Y-75367000D03*
X182779000Y-74867000D03*
X182779000Y-74367000D03*
X182779000Y-73867000D03*
X182779000Y-73367000D03*
D16*
X147975320Y-93240860D03*
X149225000Y-93240860D03*
X150474680Y-93240860D03*
D17*
X146126200Y-96540320D03*
X152323800Y-96540320D03*
D16*
X155605480Y-93240860D03*
X156855160Y-93240860D03*
X158104840Y-93240860D03*
X159354520Y-93240860D03*
D17*
X153756360Y-96540320D03*
X161203640Y-96540320D03*
D16*
X164495480Y-93240860D03*
X165745160Y-93240860D03*
X166994840Y-93240860D03*
X168244520Y-93240860D03*
D17*
X162646360Y-96540320D03*
X170093640Y-96540320D03*
D16*
X173385480Y-93240860D03*
X174635160Y-93240860D03*
X175884840Y-93240860D03*
X177134520Y-93240860D03*
D17*
X171536360Y-96540320D03*
X178983640Y-96540320D03*
D16*
X182275480Y-93240860D03*
X183525160Y-93240860D03*
X184774840Y-93240860D03*
X186024520Y-93240860D03*
D17*
X180426360Y-96540320D03*
X187873640Y-96540320D03*
D16*
X191165480Y-93240860D03*
X192415160Y-93240860D03*
X193664840Y-93240860D03*
X194914520Y-93240860D03*
D17*
X189316360Y-96540320D03*
X196763640Y-96540320D03*
D18*
X68580000Y-33909000D03*
X68580000Y-94869000D03*
X228219000Y-94742000D03*
D19*
X227584000Y-55927000D03*
D20*
X227584000Y-53427000D03*
X227584000Y-50927000D03*
X227584000Y-48427000D03*
X227584000Y-45927000D03*
X227584000Y-43427000D03*
X227584000Y-40927000D03*
D21*
X149766000Y-86233000D03*
X149766000Y-84963000D03*
X149766000Y-83693000D03*
X149766000Y-82423000D03*
X144366000Y-82423000D03*
X144366000Y-83693000D03*
X144366000Y-84963000D03*
X144366000Y-86233000D03*
D12*
X219187000Y-78645000D03*
D13*
X210187000Y-80645000D03*
X212187000Y-80645000D03*
X214187000Y-80645000D03*
X216187000Y-80645000D03*
X218187000Y-80645000D03*
X220187000Y-80645000D03*
X222187000Y-80645000D03*
X224187000Y-80645000D03*
X226187000Y-80645000D03*
X226187000Y-76645000D03*
X224187000Y-76645000D03*
X222187000Y-76645000D03*
X220187000Y-76645000D03*
X218187000Y-76645000D03*
X216187000Y-76645000D03*
X214187000Y-76645000D03*
X212187000Y-76645000D03*
X210187000Y-76645000D03*
D12*
X78232000Y-87884000D03*
D13*
X67232000Y-89884000D03*
X69232000Y-89884000D03*
X71232000Y-89884000D03*
X73232000Y-89884000D03*
X75232000Y-89884000D03*
X77232000Y-89884000D03*
X79232000Y-89884000D03*
X81232000Y-89884000D03*
X83232000Y-89884000D03*
X85232000Y-89884000D03*
X87232000Y-89884000D03*
X89232000Y-89884000D03*
X89232000Y-85884000D03*
X87232000Y-85884000D03*
X85232000Y-85884000D03*
X83232000Y-85884000D03*
X81232000Y-85884000D03*
X79232000Y-85884000D03*
X77232000Y-85884000D03*
X75232000Y-85884000D03*
X73232000Y-85884000D03*
X71232000Y-85884000D03*
X69232000Y-85884000D03*
X67232000Y-85884000D03*
D22*
X214408000Y-69723000D03*
X218408000Y-69723000D03*
D12*
X219235000Y-88614000D03*
D13*
X209235000Y-90614000D03*
X211235000Y-90614000D03*
X213235000Y-90614000D03*
X215235000Y-90614000D03*
X217235000Y-90614000D03*
X219235000Y-90614000D03*
X221235000Y-90614000D03*
X223235000Y-90614000D03*
X225235000Y-90614000D03*
X227235000Y-90614000D03*
X229235000Y-90614000D03*
X209235000Y-86614000D03*
X211235000Y-86614000D03*
X213235000Y-86614000D03*
X215235000Y-86614000D03*
X217235000Y-86614000D03*
X219235000Y-86614000D03*
X221235000Y-86614000D03*
X223235000Y-86614000D03*
X225235000Y-86614000D03*
X227235000Y-86614000D03*
X229235000Y-86614000D03*
D23*
X201266000Y-89847000D03*
X201266000Y-88577000D03*
X201266000Y-87297000D03*
X201266000Y-86027000D03*
X195466000Y-86027000D03*
X195466000Y-87297000D03*
X195466000Y-88577000D03*
X195466000Y-89847000D03*
D24*
X197866000Y-87937000D03*
D25*
X197116000Y-89027000D03*
X197116000Y-86847000D03*
D26*
X199116000Y-89027000D03*
X199116000Y-86847000D03*
D22*
X115411000Y-96139000D03*
X111411000Y-96139000D03*
D27*
X137668000Y-80162000D03*
D28*
X139968000Y-86462000D03*
X135368000Y-86462000D03*
D29*
X203454000Y-69342000D03*
X203454000Y-67142000D03*
D30*
X181653000Y-89154000D03*
X183853000Y-89154000D03*
X106045000Y-69977000D03*
X108245000Y-69977000D03*
D29*
X166751000Y-65194000D03*
X166751000Y-67394000D03*
D31*
X162687000Y-73279000D03*
X162687000Y-71379000D03*
D30*
X179197000Y-67056000D03*
X176997000Y-67056000D03*
X176868000Y-58801000D03*
X174668000Y-58801000D03*
D29*
X191135000Y-54440000D03*
X191135000Y-52240000D03*
D32*
X186944000Y-70739000D03*
X186944000Y-73439000D03*
D30*
X122725000Y-50800000D03*
X124925000Y-50800000D03*
D21*
X106520000Y-53340000D03*
X106520000Y-54610000D03*
X106520000Y-55880000D03*
X106520000Y-57150000D03*
X111920000Y-57150000D03*
X111920000Y-55880000D03*
X111920000Y-54610000D03*
X111920000Y-53340000D03*
D33*
X181347500Y-64135000D03*
X175522500Y-64135000D03*
D34*
X134290000Y-90545000D03*
X135090000Y-90545000D03*
X135890000Y-90545000D03*
X136690000Y-90545000D03*
X137490000Y-90545000D03*
D35*
X131440000Y-90645000D03*
X131440000Y-96145000D03*
X140340000Y-90645000D03*
X140340000Y-96145000D03*
D36*
X133690000Y-93145000D03*
X138090000Y-93145000D03*
D37*
X128143000Y-70866000D03*
X132461000Y-70866000D03*
D38*
X192278000Y-85598000D03*
X192278000Y-88398000D03*
D39*
X133670000Y-66040000D03*
X135570000Y-66040000D03*
D40*
X72385000Y-43540000D03*
X73655000Y-43540000D03*
X74935000Y-43540000D03*
X76205000Y-43540000D03*
X76205000Y-37740000D03*
X74935000Y-37740000D03*
X73655000Y-37740000D03*
X72385000Y-37740000D03*
D41*
X74295000Y-40140000D03*
D42*
X73205000Y-39390000D03*
X75385000Y-39390000D03*
D43*
X73205000Y-41390000D03*
X75385000Y-41390000D03*
D31*
X90170000Y-54290000D03*
X90170000Y-52390000D03*
D30*
X176997000Y-68961000D03*
X179197000Y-68961000D03*
D44*
X142560000Y-74100000D03*
X143510000Y-74100000D03*
X144460000Y-74100000D03*
X144460000Y-70680000D03*
X143510000Y-70680000D03*
X142560000Y-70680000D03*
D45*
X106091500Y-79616000D03*
X106091500Y-80886000D03*
X106091500Y-82156000D03*
X106091500Y-83426000D03*
X111651500Y-83426000D03*
X111651500Y-82156000D03*
X111651500Y-80886000D03*
X111651500Y-79616000D03*
D46*
X109474000Y-82296000D03*
X109474000Y-80746000D03*
X108269000Y-82296000D03*
X108269000Y-80746000D03*
D29*
X103632000Y-84582000D03*
X103632000Y-82382000D03*
X101854000Y-83312000D03*
X101854000Y-81112000D03*
D47*
X106045000Y-36275000D03*
X106045000Y-46275000D03*
X86995000Y-46275000D03*
X86995000Y-36275000D03*
D29*
X212725000Y-63330000D03*
X212725000Y-61130000D03*
X72390000Y-55075000D03*
X72390000Y-52875000D03*
D48*
X184632000Y-68580000D03*
X181382000Y-68580000D03*
D31*
X72390000Y-57470000D03*
X72390000Y-59370000D03*
X97155000Y-57470000D03*
X97155000Y-59370000D03*
X114935000Y-54290000D03*
X114935000Y-52390000D03*
X121920000Y-57470000D03*
X121920000Y-59370000D03*
X139700000Y-54290000D03*
X139700000Y-52390000D03*
X146685000Y-57470000D03*
X146685000Y-59370000D03*
X164465000Y-54290000D03*
X164465000Y-52390000D03*
X171450000Y-57470000D03*
X171450000Y-59370000D03*
X189230000Y-54290000D03*
X189230000Y-52390000D03*
X196215000Y-57470000D03*
X196215000Y-59370000D03*
X214630000Y-54290000D03*
X214630000Y-52390000D03*
X90170000Y-56835000D03*
X90170000Y-58735000D03*
X114935000Y-56835000D03*
X114935000Y-58735000D03*
X139700000Y-56835000D03*
X139700000Y-58735000D03*
X164465000Y-56835000D03*
X164465000Y-58735000D03*
X189230000Y-56835000D03*
X189230000Y-58735000D03*
X214630000Y-56835000D03*
X214630000Y-58735000D03*
D35*
X84201000Y-59817000D03*
X80201000Y-59817000D03*
D49*
X107950000Y-59595000D03*
X107950000Y-63595000D03*
X132715000Y-59595000D03*
X132715000Y-63595000D03*
D35*
X158591000Y-59563000D03*
X154591000Y-59563000D03*
X183356000Y-59563000D03*
X179356000Y-59563000D03*
D49*
X207010000Y-59690000D03*
X207010000Y-63690000D03*
D32*
X125984000Y-71167000D03*
X125984000Y-73867000D03*
X134620000Y-71708000D03*
X134620000Y-69008000D03*
D49*
X149860000Y-77565000D03*
X149860000Y-73565000D03*
D29*
X184150000Y-66294000D03*
X184150000Y-64094000D03*
X172720000Y-66251000D03*
X172720000Y-64051000D03*
X191008000Y-69426000D03*
X191008000Y-67226000D03*
X179451000Y-91862000D03*
X179451000Y-89662000D03*
D30*
X169756000Y-89154000D03*
X167556000Y-89154000D03*
X161333000Y-84836000D03*
X163533000Y-84836000D03*
D50*
X128778000Y-85344000D03*
X126078000Y-85344000D03*
X139272000Y-77470000D03*
X136572000Y-77470000D03*
D29*
X170180000Y-67437000D03*
X170180000Y-65237000D03*
X185166000Y-70993000D03*
X185166000Y-73193000D03*
D30*
X163533000Y-86360000D03*
X161333000Y-86360000D03*
D29*
X164211000Y-73406000D03*
X164211000Y-71206000D03*
X168275000Y-65237000D03*
X168275000Y-67437000D03*
D30*
X188849000Y-68707000D03*
X186649000Y-68707000D03*
D29*
X144525000Y-76835000D03*
X141225000Y-76835000D03*
D38*
X192278000Y-83820000D03*
X192278000Y-81020000D03*
X86490000Y-68580000D03*
X83690000Y-68580000D03*
D51*
X138430000Y-69596000D03*
X138430000Y-73914000D03*
D31*
X165354000Y-65410000D03*
X165354000Y-67310000D03*
D52*
X77150000Y-47260000D03*
X75250000Y-47260000D03*
X76200000Y-49260000D03*
X101280000Y-47260000D03*
X99380000Y-47260000D03*
X100330000Y-49260000D03*
X126045000Y-47260000D03*
X124145000Y-47260000D03*
X125095000Y-49260000D03*
X150810000Y-47260000D03*
X148910000Y-47260000D03*
X149860000Y-49260000D03*
X175575000Y-47260000D03*
X173675000Y-47260000D03*
X174625000Y-49260000D03*
X200594000Y-47260000D03*
X198694000Y-47260000D03*
X199644000Y-49260000D03*
D40*
X97150000Y-43540000D03*
X98420000Y-43540000D03*
X99700000Y-43540000D03*
X100970000Y-43540000D03*
X100970000Y-37740000D03*
X99700000Y-37740000D03*
X98420000Y-37740000D03*
X97150000Y-37740000D03*
D41*
X99060000Y-40140000D03*
D42*
X97970000Y-39390000D03*
X100150000Y-39390000D03*
D43*
X97970000Y-41390000D03*
X100150000Y-41390000D03*
D40*
X121915000Y-43540000D03*
X123185000Y-43540000D03*
X124465000Y-43540000D03*
X125735000Y-43540000D03*
X125735000Y-37740000D03*
X124465000Y-37740000D03*
X123185000Y-37740000D03*
X121915000Y-37740000D03*
D41*
X123825000Y-40140000D03*
D42*
X122735000Y-39390000D03*
X124915000Y-39390000D03*
D43*
X122735000Y-41390000D03*
X124915000Y-41390000D03*
D40*
X146680000Y-43540000D03*
X147950000Y-43540000D03*
X149230000Y-43540000D03*
X150500000Y-43540000D03*
X150500000Y-37740000D03*
X149230000Y-37740000D03*
X147950000Y-37740000D03*
X146680000Y-37740000D03*
D41*
X148590000Y-40140000D03*
D42*
X147500000Y-39390000D03*
X149680000Y-39390000D03*
D43*
X147500000Y-41390000D03*
X149680000Y-41390000D03*
D40*
X171445000Y-43540000D03*
X172715000Y-43540000D03*
X173995000Y-43540000D03*
X175265000Y-43540000D03*
X175265000Y-37740000D03*
X173995000Y-37740000D03*
X172715000Y-37740000D03*
X171445000Y-37740000D03*
D41*
X173355000Y-40140000D03*
D42*
X172265000Y-39390000D03*
X174445000Y-39390000D03*
D43*
X172265000Y-41390000D03*
X174445000Y-41390000D03*
D40*
X196210000Y-43540000D03*
X197480000Y-43540000D03*
X198760000Y-43540000D03*
X200030000Y-43540000D03*
X200030000Y-37740000D03*
X198760000Y-37740000D03*
X197480000Y-37740000D03*
X196210000Y-37740000D03*
D41*
X198120000Y-40140000D03*
D42*
X197030000Y-39390000D03*
X199210000Y-39390000D03*
D43*
X197030000Y-41390000D03*
X199210000Y-41390000D03*
D30*
X73195000Y-50800000D03*
X75395000Y-50800000D03*
X97960000Y-50800000D03*
X100160000Y-50800000D03*
X147447000Y-50800000D03*
X149647000Y-50800000D03*
X174455000Y-51054000D03*
X172255000Y-51054000D03*
X199220000Y-50800000D03*
X197020000Y-50800000D03*
X74465000Y-45720000D03*
X76665000Y-45720000D03*
X97325000Y-45720000D03*
X99525000Y-45720000D03*
X122090000Y-45720000D03*
X124290000Y-45720000D03*
X146898000Y-45720000D03*
X149098000Y-45720000D03*
X171620000Y-45720000D03*
X173820000Y-45720000D03*
X196385000Y-45720000D03*
X198585000Y-45720000D03*
D47*
X81280000Y-36275000D03*
X81280000Y-46275000D03*
X130810000Y-36275000D03*
X130810000Y-46275000D03*
X155575000Y-36275000D03*
X155575000Y-46275000D03*
X180340000Y-36275000D03*
X180340000Y-46275000D03*
X205105000Y-36275000D03*
X205105000Y-46275000D03*
X111760000Y-46275000D03*
X111760000Y-36275000D03*
X136525000Y-46275000D03*
X136525000Y-36275000D03*
X161290000Y-46275000D03*
X161290000Y-36275000D03*
X186055000Y-46275000D03*
X186055000Y-36275000D03*
X210820000Y-46275000D03*
X210820000Y-36275000D03*
X92710000Y-36275000D03*
X92710000Y-46275000D03*
X117475000Y-36275000D03*
X117475000Y-46275000D03*
X142240000Y-36275000D03*
X142240000Y-46275000D03*
X167005000Y-36275000D03*
X167005000Y-46275000D03*
X191770000Y-36275000D03*
X191770000Y-46275000D03*
D29*
X166370000Y-54440000D03*
X166370000Y-52240000D03*
X216535000Y-54440000D03*
X216535000Y-52240000D03*
X92075000Y-54440000D03*
X92075000Y-52240000D03*
X97155000Y-55075000D03*
X97155000Y-52875000D03*
X116840000Y-54440000D03*
X116840000Y-52240000D03*
X121920000Y-55075000D03*
X121920000Y-52875000D03*
X141605000Y-54440000D03*
X141605000Y-52240000D03*
X146685000Y-55075000D03*
X146685000Y-52875000D03*
X171450000Y-55075000D03*
X171450000Y-52875000D03*
X196215000Y-55075000D03*
X196215000Y-52875000D03*
X74295000Y-55075000D03*
X74295000Y-52875000D03*
X93980000Y-61130000D03*
X93980000Y-63330000D03*
X99060000Y-55075000D03*
X99060000Y-52875000D03*
X118745000Y-61130000D03*
X118745000Y-63330000D03*
X123825000Y-55075000D03*
X123825000Y-52875000D03*
X143510000Y-61130000D03*
X143510000Y-63330000D03*
X148590000Y-55075000D03*
X148590000Y-52875000D03*
X168275000Y-61130000D03*
X168275000Y-63330000D03*
X173355000Y-55075000D03*
X173355000Y-52875000D03*
X193040000Y-61130000D03*
X193040000Y-63330000D03*
X198120000Y-55075000D03*
X198120000Y-52875000D03*
X218440000Y-61130000D03*
X218440000Y-63330000D03*
X76200000Y-52875000D03*
X76200000Y-55075000D03*
D30*
X76665000Y-57150000D03*
X74465000Y-57150000D03*
X82720000Y-50800000D03*
X84920000Y-50800000D03*
D29*
X100965000Y-52875000D03*
X100965000Y-55075000D03*
D30*
X101430000Y-57150000D03*
X99230000Y-57150000D03*
X108120000Y-50800000D03*
X110320000Y-50800000D03*
D29*
X125730000Y-52875000D03*
X125730000Y-55075000D03*
D30*
X126195000Y-57150000D03*
X123995000Y-57150000D03*
X132885000Y-50800000D03*
X135085000Y-50800000D03*
D29*
X150495000Y-52875000D03*
X150495000Y-55075000D03*
D30*
X150960000Y-57150000D03*
X148760000Y-57150000D03*
X157650000Y-50800000D03*
X159850000Y-50800000D03*
D29*
X175260000Y-52875000D03*
X175260000Y-55075000D03*
D30*
X175725000Y-57150000D03*
X173525000Y-57150000D03*
X182415000Y-50800000D03*
X184615000Y-50800000D03*
D29*
X200025000Y-52875000D03*
X200025000Y-55075000D03*
D30*
X200490000Y-57150000D03*
X198290000Y-57150000D03*
X207180000Y-50800000D03*
X209380000Y-50800000D03*
D29*
X78105000Y-52875000D03*
X78105000Y-55075000D03*
X102870000Y-52875000D03*
X102870000Y-55075000D03*
X127635000Y-52875000D03*
X127635000Y-55075000D03*
X152400000Y-52875000D03*
X152400000Y-55075000D03*
X177165000Y-52875000D03*
X177165000Y-55075000D03*
X201930000Y-52875000D03*
X201930000Y-55075000D03*
X93980000Y-54440000D03*
X93980000Y-52240000D03*
X118745000Y-54440000D03*
X118745000Y-52240000D03*
X143510000Y-54440000D03*
X143510000Y-52240000D03*
X168275000Y-54440000D03*
X168275000Y-52240000D03*
X193040000Y-54440000D03*
X193040000Y-52240000D03*
X218440000Y-54440000D03*
X218440000Y-52240000D03*
X92075000Y-56685000D03*
X92075000Y-58885000D03*
X116840000Y-56685000D03*
X116840000Y-58885000D03*
X141605000Y-56685000D03*
X141605000Y-58885000D03*
X166370000Y-56685000D03*
X166370000Y-58885000D03*
X191135000Y-56685000D03*
X191135000Y-58885000D03*
X216535000Y-56685000D03*
X216535000Y-58885000D03*
X93980000Y-58885000D03*
X93980000Y-56685000D03*
X92075000Y-63330000D03*
X92075000Y-61130000D03*
X118745000Y-58885000D03*
X118745000Y-56685000D03*
X116840000Y-63330000D03*
X116840000Y-61130000D03*
X143510000Y-58885000D03*
X143510000Y-56685000D03*
X141605000Y-63330000D03*
X141605000Y-61130000D03*
X168275000Y-58885000D03*
X168275000Y-56685000D03*
X166370000Y-63330000D03*
X166370000Y-61130000D03*
X193040000Y-58885000D03*
X193040000Y-56685000D03*
X191135000Y-63330000D03*
X191135000Y-61130000D03*
X218440000Y-58885000D03*
X218440000Y-56685000D03*
X216535000Y-63330000D03*
X216535000Y-61130000D03*
D30*
X96690000Y-63500000D03*
X98890000Y-63500000D03*
X120650000Y-63500000D03*
X122850000Y-63500000D03*
X145415000Y-63500000D03*
X147615000Y-63500000D03*
D29*
X170180000Y-61130000D03*
X170180000Y-63330000D03*
X194818000Y-60030000D03*
X194818000Y-62230000D03*
X220218000Y-61130000D03*
X220218000Y-63330000D03*
X90170000Y-61130000D03*
X90170000Y-63330000D03*
X114935000Y-61130000D03*
X114935000Y-63330000D03*
X139700000Y-61130000D03*
X139700000Y-63330000D03*
X164465000Y-61130000D03*
X164465000Y-63330000D03*
X189230000Y-61130000D03*
X189230000Y-63330000D03*
X214630000Y-61130000D03*
X214630000Y-63330000D03*
X146050000Y-70274000D03*
X146050000Y-72474000D03*
X147574000Y-76370000D03*
X147574000Y-78570000D03*
X147574000Y-71925000D03*
X147574000Y-74125000D03*
X162560000Y-61130000D03*
X162560000Y-63330000D03*
X137795000Y-61130000D03*
X137795000Y-63330000D03*
X113030000Y-61130000D03*
X113030000Y-63330000D03*
X88265000Y-61130000D03*
X88265000Y-63330000D03*
X127635000Y-59225000D03*
X127635000Y-61425000D03*
X102870000Y-59860000D03*
X102870000Y-62060000D03*
X78105000Y-59225000D03*
X78105000Y-61425000D03*
X201930000Y-61425000D03*
X201930000Y-59225000D03*
D30*
X152273000Y-58801000D03*
X150073000Y-58801000D03*
D29*
X187325000Y-63330000D03*
X187325000Y-61130000D03*
D30*
X147998000Y-89916000D03*
X150198000Y-89916000D03*
D29*
X128905000Y-96985000D03*
X128905000Y-94785000D03*
D30*
X96690000Y-65405000D03*
X98890000Y-65405000D03*
X98890000Y-69215000D03*
X96690000Y-69215000D03*
X96690000Y-67310000D03*
X98890000Y-67310000D03*
D29*
X76200000Y-69045000D03*
X76200000Y-66845000D03*
D53*
X73152000Y-69945000D03*
X73152000Y-65945000D03*
D30*
X93810000Y-70485000D03*
X91610000Y-70485000D03*
D29*
X88265000Y-68750000D03*
X88265000Y-70950000D03*
D21*
X81755000Y-53340000D03*
X81755000Y-54610000D03*
X81755000Y-55880000D03*
X81755000Y-57150000D03*
X87155000Y-57150000D03*
X87155000Y-55880000D03*
X87155000Y-54610000D03*
X87155000Y-53340000D03*
X131285000Y-53340000D03*
X131285000Y-54610000D03*
X131285000Y-55880000D03*
X131285000Y-57150000D03*
X136685000Y-57150000D03*
X136685000Y-55880000D03*
X136685000Y-54610000D03*
X136685000Y-53340000D03*
X156050000Y-53340000D03*
X156050000Y-54610000D03*
X156050000Y-55880000D03*
X156050000Y-57150000D03*
X161450000Y-57150000D03*
X161450000Y-55880000D03*
X161450000Y-54610000D03*
X161450000Y-53340000D03*
X180815000Y-53340000D03*
X180815000Y-54610000D03*
X180815000Y-55880000D03*
X180815000Y-57150000D03*
X186215000Y-57150000D03*
X186215000Y-55880000D03*
X186215000Y-54610000D03*
X186215000Y-53340000D03*
X205580000Y-53340000D03*
X205580000Y-54610000D03*
X205580000Y-55880000D03*
X205580000Y-57150000D03*
X210980000Y-57150000D03*
X210980000Y-55880000D03*
X210980000Y-54610000D03*
X210980000Y-53340000D03*
D27*
X128778000Y-76225000D03*
D28*
X128778000Y-82525000D03*
X131078000Y-82525000D03*
X126478000Y-82525000D03*
D54*
X81360000Y-69530000D03*
X81360000Y-68580000D03*
X81360000Y-67630000D03*
X78660000Y-67630000D03*
X78660000Y-69530000D03*
D30*
X134315200Y-74778600D03*
X134315200Y-78078600D03*
D31*
X152400000Y-82865000D03*
X152400000Y-80965000D03*
D23*
X205400000Y-67358000D03*
X205400000Y-68628000D03*
X205400000Y-69908000D03*
X205400000Y-71178000D03*
X211200000Y-71178000D03*
X211200000Y-69908000D03*
X211200000Y-68628000D03*
X211200000Y-67358000D03*
D24*
X208800000Y-69268000D03*
D25*
X209550000Y-68178000D03*
X209550000Y-70358000D03*
D26*
X207550000Y-68178000D03*
X207550000Y-70358000D03*
D39*
X107950000Y-71501000D03*
X106050000Y-71501000D03*
D29*
X192659000Y-69383000D03*
X192659000Y-67183000D03*
D55*
X195580000Y-67531000D03*
X195580000Y-72931000D03*
D56*
X101664000Y-73914000D03*
X105664000Y-73914000D03*
X101632000Y-76454000D03*
X105632000Y-76454000D03*
D29*
X115062000Y-79588000D03*
X115062000Y-81788000D03*
X116586000Y-79588000D03*
X116586000Y-81788000D03*
D57*
X121666000Y-81315000D03*
X121666000Y-88865000D03*
D29*
X116586000Y-86190000D03*
X116586000Y-83990000D03*
D58*
X114872000Y-73152000D03*
X122872000Y-73152000D03*
D30*
X106002000Y-86614000D03*
X103802000Y-86614000D03*
X112098000Y-85598000D03*
X109898000Y-85598000D03*
D29*
X115062000Y-83990000D03*
X115062000Y-86190000D03*
D59*
X156651000Y-89042000D03*
X156651000Y-88392000D03*
X156651000Y-87742000D03*
X153991000Y-87742000D03*
X153991000Y-88392000D03*
X153991000Y-89042000D03*
D31*
X152146000Y-92009000D03*
X152146000Y-90109000D03*
D39*
X163860400Y-89204800D03*
X165760400Y-89204800D03*
D60*
X145796000Y-78867000D03*
X98933000Y-74295000D03*
X154178000Y-80772000D03*
X200152000Y-71374000D03*
X123190000Y-66294000D03*
D18*
X228219000Y-34036000D03*
D47*
X216535000Y-36275000D03*
X216535000Y-46275000D03*
M02*
